<?xml version="1.0" encoding="UTF-8" standalone="no"?>
<!DOCTYPE svg PUBLIC "-//W3C//DTD SVG 1.1//EN" "http://www.w3.org/Graphics/SVG/1.1/DTD/svg11.dtd">
<svg width="100%" height="100%" viewBox="0 0 512 512" version="1.1" xmlns="http://www.w3.org/2000/svg" xmlns:xlink="http://www.w3.org/1999/xlink" xml:space="preserve" xmlns:serif="http://www.serif.com/" style="fill-rule:evenodd;clip-rule:evenodd;stroke-linejoin:round;stroke-miterlimit:2;">
    <g transform="matrix(1.33506,0,0,1.33681,-171.55,-141.7)">
        <g>
            <g transform="matrix(1,0,0,0.999177,0,0.402399)">
                <g transform="matrix(0.58295,-0.336213,-0.393643,-0.681094,380.52,595.887)">
                    <rect x="10" y="152" width="318" height="75"/>
                </g>
                <g transform="matrix(-2.76364e-17,-0.172956,-0.786666,0.000715522,631.573,383.567)">
                    <rect x="10" y="152" width="318" height="75"/>
                </g>
            </g>
            <g transform="matrix(1,0,0,-0.999177,0,594.594)">
                <g transform="matrix(0.58295,-0.336213,-0.393643,-0.681094,380.52,595.887)">
                    <rect x="10" y="152" width="318" height="75"/>
                </g>
                <g transform="matrix(-2.76364e-17,-0.172956,-0.786666,0.000715522,631.573,383.567)">
                    <rect x="10" y="152" width="318" height="75"/>
                </g>
            </g>
        </g>
        <g transform="matrix(1,0,0,1,-168.496,0)">
            <g transform="matrix(1,0,0,0.999177,0,0.402399)">
                <g transform="matrix(0.58295,-0.336213,-0.393643,-0.681094,380.52,595.887)">
                    <rect x="10" y="152" width="318" height="75"/>
                </g>
                <g transform="matrix(-2.76364e-17,-0.172956,-0.786666,0.000715522,631.573,383.567)">
                    <rect x="10" y="152" width="318" height="75"/>
                </g>
            </g>
            <g transform="matrix(1,0,0,-0.999177,0,594.594)">
                <g transform="matrix(0.58295,-0.336213,-0.393643,-0.681094,380.52,595.887)">
                    <rect x="10" y="152" width="318" height="75"/>
                </g>
                <g transform="matrix(-2.76364e-17,-0.172956,-0.786666,0.000715522,631.573,383.567)">
                    <rect x="10" y="152" width="318" height="75"/>
                </g>
            </g>
        </g>
    </g>
</svg>
