<?xml version="1.0" encoding="UTF-8" standalone="no"?>
<!DOCTYPE svg PUBLIC "-//W3C//DTD SVG 1.1//EN" "http://www.w3.org/Graphics/SVG/1.1/DTD/svg11.dtd">
<svg width="100%" height="100%" viewBox="0 0 512 512" version="1.1" xmlns="http://www.w3.org/2000/svg" xmlns:xlink="http://www.w3.org/1999/xlink" xml:space="preserve" xmlns:serif="http://www.serif.com/" style="fill-rule:evenodd;clip-rule:evenodd;stroke-linejoin:round;stroke-miterlimit:2;">
    <g transform="matrix(7.0804e-17,1.61006,-0.533333,-8.3223e-17,121.067,-16.1006)">
        <rect x="10" y="152" width="318" height="75"/>
    </g>
    <g transform="matrix(7.0804e-17,1.61006,-0.533333,-8.3223e-17,593.067,-16.1006)">
        <rect x="10" y="152" width="318" height="75"/>
    </g>
    <g transform="matrix(1.61006,2.77839e-17,-1.1588e-16,0.533333,-16.1006,390.933)">
        <rect x="10" y="152" width="318" height="75"/>
    </g>
    <g transform="matrix(1.61006,2.77839e-17,-1.1588e-16,0.533333,-16.1006,-81.0667)">
        <rect x="10" y="152" width="318" height="75"/>
    </g>
    <g transform="matrix(0.956565,0,0,0.934619,1.73739,32.6914)">
        <rect x="40" y="240" width="230" height="232"/>
    </g>
    <g transform="matrix(0.956565,0,0,0.934619,1.73739,32.6914)">
        <rect x="40" y="240" width="230" height="232"/>
    </g>
    <g transform="matrix(0.956565,0,0,0.956897,221.727,-194.655)">
        <rect x="40" y="240" width="230" height="232"/>
    </g>
</svg>
