<?xml version="1.0" encoding="UTF-8" standalone="no"?>
<!DOCTYPE svg PUBLIC "-//W3C//DTD SVG 1.1//EN" "http://www.w3.org/Graphics/SVG/1.1/DTD/svg11.dtd">
<svg width="100%" height="100%" viewBox="0 0 512 512" version="1.1" xmlns="http://www.w3.org/2000/svg" xmlns:xlink="http://www.w3.org/1999/xlink" xml:space="preserve" xmlns:serif="http://www.serif.com/" style="fill-rule:evenodd;clip-rule:evenodd;stroke-linejoin:round;stroke-miterlimit:2;">
    <g transform="matrix(6.12323e-17,-1,1,6.12323e-17,-90,303.923)">
        <path d="M200,90L303.923,150L303.923,270L200,330L96.077,270L96.077,150L200,90Z"/>
    </g>
    <g transform="matrix(6.12323e-17,-1,1,6.12323e-17,-90,608.077)">
        <path d="M200,90L303.923,150L303.923,270L200,330L96.077,270L96.077,150L200,90Z"/>
    </g>
    <g transform="matrix(6.12323e-17,-1,1,6.12323e-17,182,608.077)">
        <path d="M200,90L303.923,150L303.923,270L200,330L96.077,270L96.077,150L200,90Z"/>
    </g>
    <g transform="matrix(6.12323e-17,-1,1,6.12323e-17,182,303.923)">
        <path d="M200,90L303.923,150L303.923,270L200,330L96.077,270L96.077,150L200,90Z"/>
    </g>
    <g transform="matrix(1,0,0,1,115,130)">
        <rect x="90" y="260" width="90" height="40"/>
    </g>
    <g transform="matrix(1,0,0,1,120,-180)">
        <rect x="90" y="260" width="90" height="40"/>
    </g>
    <g transform="matrix(6.55239e-17,-1.07009,1,6.12323e-17,112,400.462)">
        <rect x="90" y="260" width="90" height="40"/>
    </g>
    <g transform="matrix(6.55239e-17,-1.07009,1,6.12323e-17,-160,400.462)">
        <rect x="90" y="260" width="90" height="40"/>
    </g>
</svg>
