<?xml version="1.0" encoding="UTF-8" standalone="no"?>
<!DOCTYPE svg PUBLIC "-//W3C//DTD SVG 1.1//EN" "http://www.w3.org/Graphics/SVG/1.1/DTD/svg11.dtd">
<svg width="100%" height="100%" viewBox="0 0 512 419" version="1.1" xmlns="http://www.w3.org/2000/svg" xmlns:xlink="http://www.w3.org/1999/xlink" xml:space="preserve" xmlns:serif="http://www.serif.com/" style="fill-rule:evenodd;clip-rule:evenodd;stroke-linejoin:round;stroke-miterlimit:2;">
    <g>
        <g transform="matrix(1.24878,0,0,0.909091,-38.7122,-7.27273)">
            <rect x="31" y="8" width="410" height="55"/>
        </g>
        <g transform="matrix(1,0,0,0.680272,-23,-11.5442)">
            <rect x="23" y="89" width="50" height="147"/>
        </g>
        <g transform="matrix(1,0,0,0.680272,439,-11.5442)">
            <rect x="23" y="89" width="50" height="147"/>
        </g>
    </g>
    <g transform="matrix(1,0,0,1,2.70006e-13,49.606)">
        <g transform="matrix(1.24878,0,0,0.909091,-38.7122,311.727)">
            <rect x="31" y="8" width="410" height="55"/>
        </g>
        <g transform="matrix(0.538158,-0.538158,0.642824,0.642824,-21.8255,281.579)">
            <rect x="31" y="8" width="410" height="55"/>
        </g>
        <g transform="matrix(1,0,0,0.340136,-23,239.728)">
            <rect x="23" y="89" width="50" height="147"/>
        </g>
        <g transform="matrix(1.41421,0,0,0.340136,188.118,19.1219)">
            <rect x="23" y="89" width="50" height="147"/>
        </g>
        <g transform="matrix(1,0,0,0.340136,439,239.728)">
            <rect x="23" y="89" width="50" height="147"/>
        </g>
        <g transform="matrix(-0.538158,-0.538158,-0.642824,0.642824,533.825,281.579)">
            <rect x="31" y="8" width="410" height="55"/>
        </g>
    </g>
</svg>
