<?xml version="1.0" encoding="UTF-8" standalone="no"?>
<!DOCTYPE svg PUBLIC "-//W3C//DTD SVG 1.1//EN" "http://www.w3.org/Graphics/SVG/1.1/DTD/svg11.dtd">
<svg width="100%" height="100%" viewBox="0 0 454 440" version="1.1" xmlns="http://www.w3.org/2000/svg" xmlns:xlink="http://www.w3.org/1999/xlink" xml:space="preserve" xmlns:serif="http://www.serif.com/" style="fill-rule:evenodd;clip-rule:evenodd;stroke-linejoin:round;stroke-miterlimit:2;">
    <g transform="matrix(0.845456,0,0,0.845456,-90.1224,-63.4092)">
        <g transform="matrix(1.07988,9.78285e-18,-9.78285e-18,-1,242.219,515)">
            <path d="M122.959,110L155.037,170L90.88,170L122.959,110Z"/>
        </g>
        <g transform="matrix(1,0,0,1,0.0961894,35)">
            <path d="M409.641,40L504.904,95L504.904,245L409.641,300L409.641,253.812L464.904,221.906L464.904,118.094L409.641,86.188L409.641,40ZM340.359,40L340.359,86.188L285.096,118.094L285.096,221.906L340.359,253.812L340.359,300L245.096,245L245.096,95L340.359,40Z"/>
        </g>
        <g transform="matrix(-0.5,0.866025,-0.866025,-0.5,848.128,205.24)">
            <path d="M409.641,40L504.904,95L504.904,245L409.641,300L409.641,253.812L464.904,221.906L464.904,118.094L409.641,86.188L409.641,40ZM340.359,40L340.359,86.188L285.096,118.094L285.096,221.906L340.359,253.812L340.359,300L245.096,245L245.096,95L340.359,40Z"/>
        </g>
        <g transform="matrix(-0.50037,-0.866667,0.866025,-0.5,276.963,855.083)">
            <path d="M409.641,40L504.904,95L504.904,245L409.641,300L409.641,253.812L464.904,221.906L464.904,118.094L409.641,86.188L409.641,40ZM340.359,40L340.359,86.188L285.096,118.094L285.096,221.906L340.359,253.812L340.359,300L245.096,245L245.096,95L340.359,40Z"/>
        </g>
    </g>
</svg>
