<?xml version="1.0" encoding="UTF-8" standalone="no"?>
<!DOCTYPE svg PUBLIC "-//W3C//DTD SVG 1.1//EN" "http://www.w3.org/Graphics/SVG/1.1/DTD/svg11.dtd">
<svg width="100%" height="100%" viewBox="0 0 512 512" version="1.1" xmlns="http://www.w3.org/2000/svg" xmlns:xlink="http://www.w3.org/1999/xlink" xml:space="preserve" xmlns:serif="http://www.serif.com/" style="fill-rule:evenodd;clip-rule:evenodd;stroke-linejoin:round;stroke-miterlimit:2;">
    <g>
        <g transform="matrix(-1.46595,-1.46595,1.46595,-1.46595,125.813,809.499)">
            <path d="M177,110C146,140.5 115,184.128 115,202C115,219.109 128.891,233 146,233C163.109,233 177,219.109 177,202C177,184.128 155.3,156 177,110Z"/>
        </g>
        <g transform="matrix(-2.07317,-3.53663e-16,3.53663e-16,-2.07317,557.683,738.049)">
            <path d="M177,110C146,140.5 115,184.128 115,202C115,219.109 128.891,233 146,233C163.109,233 177,219.109 177,202C177,184.128 155.3,156 177,110Z"/>
        </g>
        <g transform="matrix(-1.46595,1.46595,-1.46595,-1.46595,809.499,381.441)">
            <path d="M177,110C146,140.5 115,184.128 115,202C115,219.109 128.891,233 146,233C163.109,233 177,219.109 177,202C177,184.128 155.3,156 177,110Z"/>
        </g>
        <g transform="matrix(-3.53663e-16,-2.07317,2.07317,-3.53663e-16,-228.049,557.683)">
            <path d="M177,110C146,140.5 115,184.128 115,202C115,219.109 128.891,233 146,233C163.109,233 177,219.109 177,202C177,184.128 155.3,156 177,110Z"/>
        </g>
        <g transform="matrix(-1.46595,-1.46595,1.46595,-1.46595,125.813,809.499)">
            <path d="M177,110C146,140.5 115,184.128 115,202C115,219.109 128.891,233 146,233C163.109,233 177,219.109 177,202C177,184.128 155.3,156 177,110Z"/>
        </g>
        <g transform="matrix(-2.07317,-3.53663e-16,3.53663e-16,-2.07317,557.683,738.049)">
            <path d="M177,110C146,140.5 115,184.128 115,202C115,219.109 128.891,233 146,233C163.109,233 177,219.109 177,202C177,184.128 155.3,156 177,110Z"/>
        </g>
        <g transform="matrix(-1.46595,1.46595,-1.46595,-1.46595,809.499,381.441)">
            <path d="M177,110C146,140.5 115,184.128 115,202C115,219.109 128.891,233 146,233C163.109,233 177,219.109 177,202C177,184.128 155.3,156 177,110Z"/>
        </g>
        <g transform="matrix(-3.53663e-16,-2.07317,2.07317,-3.53663e-16,-228.049,557.683)">
            <path d="M177,110C146,140.5 115,184.128 115,202C115,219.109 128.891,233 146,233C163.109,233 177,219.109 177,202C177,184.128 155.3,156 177,110Z"/>
        </g>
        <g transform="matrix(1.46595,-1.46595,1.46595,1.46595,-301.092,125.455)">
            <path d="M177,110C146,140.5 115,184.128 115,202C115,219.109 128.891,233 146,233C163.109,233 177,219.109 177,202C177,184.128 155.3,156 177,110Z"/>
        </g>
        <g transform="matrix(2.07317,2.32091e-16,-2.32091e-16,2.07317,-47.6829,-228.049)">
            <path d="M177,110C146,140.5 115,184.128 115,202C115,219.109 128.891,233 146,233C163.109,233 177,219.109 177,202C177,184.128 155.3,156 177,110Z"/>
        </g>
        <g transform="matrix(1.46595,1.46595,-1.46595,1.46595,382.236,-301.489)">
            <path d="M177,110C146,140.5 115,184.128 115,202C115,219.109 128.891,233 146,233C163.109,233 177,219.109 177,202C177,184.128 155.3,156 177,110Z"/>
        </g>
        <g transform="matrix(2.43143e-16,2.07317,-2.07317,2.43143e-16,738.049,-47.6829)">
            <path d="M177,110C146,140.5 115,184.128 115,202C115,219.109 128.891,233 146,233C163.109,233 177,219.109 177,202C177,184.128 155.3,156 177,110Z"/>
        </g>
    </g>
</svg>
